<?xml version="1.0" encoding="UTF-8"?>
<svg xmlns="http://www.w3.org/2000/svg" viewBox="0 0 400.66 454.91">
  <g transform="translate(-132.72 -144.6)">
    <g>
      <path style="fill-rule:evenodd;stroke:#aa0000;fill:#aa0000" d="m287.72 593.49 20.068-45.625-5.5359-73.589-21.452 27.964z"/>
      <path style="fill-rule:evenodd;fill:#959ba3" d="m280.8 502.24 21.452-27.964h-103.11l-47.747 27.964z"/>
      <path style="fill-rule:evenodd;fill:#959ba3" d="m199.15 474.28zm-47.747 27.964z"/>
      <path style="fill-rule:evenodd;stroke:#aa0000;fill:#aa0000" d="m288.41 593.49 20.07-45.62-15.92-221.5-24.22-8.84z"/>
      <path style="fill-rule:evenodd;stroke:#aa0000;fill:#aa0000" d="m268.34 317.53 24.219 8.8306 0.69198-12.51-24.219-11.774z"/>
      <path style="fill-rule:evenodd;stroke:#aa0000;fill:#aa0000" d="m269.04 302.08 24.219 11.774 2.7679-10.302-23.527-14.718z"/>
      <path style="fill-rule:evenodd;stroke:#aa0000;fill:#aa0000" d="m272.5 288.84 23.527 14.718 4.8439-9.5665-22.144-16.925z"/>
      <path style="fill-rule:evenodd;stroke:#aa0000;fill:#aa0000" d="m278.72 277.06 22.144 16.925 6.9198-7.3589-20.76-19.133z"/>
      <path style="fill-rule:evenodd;stroke:#aa0000;fill:#aa0000" d="m287.03 267.49 20.76 19.133 8.3038-6.623-18.684-20.605z"/>
      <path style="fill-rule:evenodd;stroke:#aa0000;fill:#aa0000" d="m297.41 259.4 18.684 20.605 7.6118-5.1512-16.608-21.341z"/>
      <path style="fill-rule:evenodd;stroke:#aa0000;fill:#aa0000" d="m307.1 253.51 16.608 21.341 8.9958-2.9435-14.532-22.077z"/>
      <path style="fill-rule:evenodd;stroke:#aa0000;fill:#aa0000" d="m318.17 249.83 14.532 22.077 8.3038-0.73589-11.764-22.812z"/>
      <path style="fill-rule:evenodd;stroke:#aa0000;fill:#aa0000" d="m329.24 248.36 11.764 22.812h1.384l-11.764-22.812z"/>
      <path style="fill-rule:evenodd;stroke:#aa0000;fill:#aa0000" d="m330.62 248.36 11.764 22.812h0.69197l-11.764-22.812z"/>
      <path style="fill-rule:evenodd;stroke:#aa0000;fill:#aa0000" d="m331.32 248.36 11.764 22.812h2.7679l-11.764-22.812z"/>
      <path style="fill-rule:evenodd;stroke:#aa0000;fill:#aa0000" d="m334.08 248.36 11.764 22.812 2.768 0.73589-11.072-22.812z"/>
      <path style="fill-rule:evenodd;stroke:#aa0000;fill:#aa0000" d="m337.54 249.1 11.072 22.812 7.6118 1.4718-8.9958-22.077z"/>
      <path style="fill-rule:evenodd;stroke:#aa0000;fill:#aa0000" d="m347.23 251.31 8.9958 22.077 8.3038 2.9436-6.9198-21.341z"/>
      <path style="fill-rule:evenodd;stroke:#aa0000;fill:#aa0000" d="m357.61 254.98 6.9198 21.341 7.6118 4.4153-4.8439-19.869z"/>
      <path style="fill-rule:evenodd;stroke:#aa0000;fill:#aa0000" d="m367.3 260.87 4.8439 19.869 7.6118 6.623-3.4599-18.397z"/>
      <path style="fill-rule:evenodd;stroke:#aa0000;fill:#aa0000" d="m376.29 268.97 3.4599 18.397 5.5359 8.0948-1.384-16.925z"/>
      <path style="fill-rule:evenodd;stroke:#aa0000;fill:#aa0000" d="m383.91 278.53 1.384 16.925 4.8439 8.0947-0.69198-13.982z"/>
      <path style="fill-rule:evenodd;stroke:#aa0000;fill:#aa0000" d="m389.44 289.57 0.69198 13.982 2.0759 10.302v-11.774z"/>
      <path style="fill-rule:evenodd;stroke:#aa0000;fill:#aa0000" d="m392.21 302.08v11.774l1.384 11.774v-8.8306z"/>
      <path style="fill-rule:evenodd;fill:#d0411a" d="m207.45 547.87zm-45.671 45.625z"/>
      <path style="fill-rule:evenodd;stroke:#aa0000;fill:#aa0000" d="m287.72 593.49 20.068-45.625-5.5359-73.589-21.452 27.964z"/>
      <path style="fill-rule:evenodd;fill:#959ba3" d="m280.8 502.24 21.452-27.964h-103.11l-47.747 27.964z"/>
      <path style="fill-rule:evenodd;fill:#959ba3" d="m199.15 474.28zm-47.747 27.964z"/>
      <path style="fill-rule:evenodd;stroke:#aa0000;fill:#aa0000" d="m288.41 593.49 20.07-45.62-15.92-221.5-24.22-8.84z"/>
      <path style="fill-rule:evenodd;stroke:#aa0000;fill:#aa0000" d="m268.34 317.53 24.219 8.8306 0.69198-12.51-24.219-11.774z"/>
      <path style="fill-rule:evenodd;stroke:#aa0000;fill:#aa0000" d="m269.04 302.08 24.219 11.774 2.7679-10.302-23.527-14.718z"/>
      <path style="fill-rule:evenodd;stroke:#aa0000;fill:#aa0000" d="m272.5 288.84 23.527 14.718 4.8439-9.5665-22.144-16.925z"/>
      <path style="fill-rule:evenodd;stroke:#aa0000;fill:#aa0000" d="m278.72 277.06 22.144 16.925 6.9198-7.3589-20.76-19.133z"/>
      <path style="fill-rule:evenodd;stroke:#aa0000;fill:#aa0000" d="m287.03 267.49 20.76 19.133 8.3038-6.623-18.684-20.605z"/>
      <path style="fill-rule:evenodd;stroke:#aa0000;fill:#aa0000" d="m297.41 259.4 18.684 20.605 7.6118-5.1512-16.608-21.341z"/>
      <path style="fill-rule:evenodd;stroke:#aa0000;fill:#aa0000" d="m307.1 253.51 16.608 21.341 8.9958-2.9435-14.532-22.077z"/>
      <path style="fill-rule:evenodd;stroke:#aa0000;fill:#aa0000" d="m318.17 249.83 14.532 22.077 8.3038-0.73589-11.764-22.812z"/>
      <path style="fill-rule:evenodd;stroke:#aa0000;fill:#aa0000" d="m329.24 248.36 11.764 22.812h1.384l-11.764-22.812z"/>
      <path style="fill-rule:evenodd;stroke:#aa0000;fill:#aa0000" d="m330.62 248.36 11.764 22.812h0.69197l-11.764-22.812z"/>
      <path style="fill-rule:evenodd;stroke:#aa0000;fill:#aa0000" d="m331.32 248.36 11.764 22.812h2.7679l-11.764-22.812z"/>
      <path style="fill-rule:evenodd;stroke:#aa0000;fill:#aa0000" d="m334.08 248.36 11.764 22.812 2.768 0.73589-11.072-22.812z"/>
      <path style="fill-rule:evenodd;stroke:#aa0000;fill:#aa0000" d="m337.54 249.1 11.072 22.812 7.6118 1.4718-8.9958-22.077z"/>
      <path style="fill-rule:evenodd;stroke:#aa0000;fill:#aa0000" d="m347.23 251.31 8.9958 22.077 8.3038 2.9436-6.9198-21.341z"/>
      <path style="fill-rule:evenodd;stroke:#aa0000;fill:#aa0000" d="m357.61 254.98 6.9198 21.341 7.6118 4.4153-4.8439-19.869z"/>
      <path style="fill-rule:evenodd;stroke:#aa0000;fill:#aa0000" d="m367.3 260.87 4.8439 19.869 7.6118 6.623-3.4599-18.397z"/>
      <path style="fill-rule:evenodd;stroke:#aa0000;fill:#aa0000" d="m376.29 268.97 3.4599 18.397 5.5359 8.0948-1.384-16.925z"/>
      <path style="fill-rule:evenodd;stroke:#aa0000;fill:#aa0000" d="m383.91 278.53 1.384 16.925 4.8439 8.0947-0.69198-13.982z"/>
      <path style="fill-rule:evenodd;stroke:#aa0000;fill:#aa0000" d="m389.44 289.57 0.69198 13.982 2.0759 10.302v-11.774z"/>
      <path style="fill-rule:evenodd;stroke:#aa0000;fill:#aa0000" d="m392.21 302.08v11.774l1.384 11.774v-8.8306z"/>
      <path style="fill-rule:evenodd;fill:#d0411a" d="m207.45 547.87zm-45.671 45.625z"/>
      <path style="fill-rule:evenodd;fill:#d0411a" d="m161.78 597.91h126.63l-20.068-275.96 0.69199-15.454 3.4599-13.246 6.2278-11.774 8.3038-9.5665 10.38-8.0947 9.6878-5.8871 11.072-3.6794 11.072-1.4718h1.384 0.69198 2.7679l3.4599 0.73588 9.6878 2.2077 10.38 3.6794 9.6878 5.8871 8.9958 8.0947 7.6118 9.5665 5.5359 11.038 2.7679 12.51 1.384 14.718-17.992 276.69h130.09l27.679-275.96-0.692-21.341-2.7679-19.869-4.1519-18.397-6.2279-16.925-7.6118-16.189-8.9958-14.718-11.072-13.246-12.456-11.774-14.532-10.302-15.224-9.5665-16.608-7.3588-18.684-6.623-19.376-4.4153-20.068-3.6794-22.144-2.2076-22.835-0.73589-22.835 0.73589-21.452 2.2076-20.76 3.6794-18.684 5.1512-17.3 6.623-16.608 7.3589-14.532 9.5665-13.84 11.038-11.764 12.51-10.38 13.246-8.9958 15.454-6.9198 16.925-6.2278 18.397-3.4599 19.133-2.7679 21.341-0.69198 22.812 29.063 267.13z"/>
      <path style="fill:#666666" d="m310.38 550.36-21.845 49.156-8.136-91.858 23.921-37.202 6.0594 79.904"/>
      <path style="fill-rule:evenodd;fill:#959ba3" d="m152.02 507.66 10.38 91.25h125.94l-6.9198-91.25h-129.4z"/>
      <path style="fill-rule:evenodd;fill:#959ba3" d="m380.14 507.66-6.8359 91.25 131.39 0.60806 10.212-91.858h-134.77z"/>
    </g>
  </g>
</svg>
